<mxfile host="app.diagrams.net" modified="2020-12-04T07:15:27.881Z" agent="5.0 (Macintosh; Intel Mac OS X 11_0_0) AppleWebKit/537.36 (KHTML, like Gecko) Chrome/86.0.4240.198 Safari/537.36" etag="CrhG6ZLUQUjQ-AoOll1H" version="13.10.4" type="github">
  <diagram id="C5RBs43oDa-KdzZeNtuy" name="Page-1">
    <mxGraphModel dx="946" dy="620" grid="1" gridSize="10" guides="1" tooltips="1" connect="1" arrows="1" fold="1" page="1" pageScale="1" pageWidth="827" pageHeight="1169" math="0" shadow="0">
      <root>
        <mxCell id="WIyWlLk6GJQsqaUBKTNV-0" />
        <mxCell id="WIyWlLk6GJQsqaUBKTNV-1" parent="WIyWlLk6GJQsqaUBKTNV-0" />
        <mxCell id="qsxSFnYyLfXHDJvH-c0t-9" style="edgeStyle=orthogonalEdgeStyle;rounded=0;orthogonalLoop=1;jettySize=auto;html=1;endArrow=blockThin;endFill=1;" edge="1" parent="WIyWlLk6GJQsqaUBKTNV-1" source="qsxSFnYyLfXHDJvH-c0t-11" target="qsxSFnYyLfXHDJvH-c0t-8">
          <mxGeometry relative="1" as="geometry">
            <mxPoint x="400" y="150" as="sourcePoint" />
          </mxGeometry>
        </mxCell>
        <mxCell id="qsxSFnYyLfXHDJvH-c0t-15" style="edgeStyle=orthogonalEdgeStyle;rounded=0;orthogonalLoop=1;jettySize=auto;html=1;endArrow=blockThin;endFill=1;" edge="1" parent="WIyWlLk6GJQsqaUBKTNV-1" source="qsxSFnYyLfXHDJvH-c0t-8" target="qsxSFnYyLfXHDJvH-c0t-14">
          <mxGeometry relative="1" as="geometry" />
        </mxCell>
        <mxCell id="qsxSFnYyLfXHDJvH-c0t-8" value="&lt;span&gt;กำหนด block เริ่มต้น index ที่ 0&lt;/span&gt;" style="rounded=1;whiteSpace=wrap;html=1;absoluteArcSize=1;arcSize=14;strokeWidth=2;" vertex="1" parent="WIyWlLk6GJQsqaUBKTNV-1">
          <mxGeometry x="310" y="120" width="180" height="70" as="geometry" />
        </mxCell>
        <mxCell id="qsxSFnYyLfXHDJvH-c0t-11" value="&lt;span style=&quot;font-family: &amp;#34;helvetica&amp;#34;&quot;&gt;เริ่มระบบ&lt;/span&gt;" style="strokeWidth=2;html=1;shape=mxgraph.flowchart.start_1;whiteSpace=wrap;" vertex="1" parent="WIyWlLk6GJQsqaUBKTNV-1">
          <mxGeometry x="350" y="20" width="100" height="60" as="geometry" />
        </mxCell>
        <mxCell id="qsxSFnYyLfXHDJvH-c0t-25" style="edgeStyle=orthogonalEdgeStyle;rounded=0;orthogonalLoop=1;jettySize=auto;html=1;strokeColor=#330000;strokeWidth=1;endArrow=blockThin;endFill=1;shape=link;" edge="1" parent="WIyWlLk6GJQsqaUBKTNV-1" source="qsxSFnYyLfXHDJvH-c0t-12" target="qsxSFnYyLfXHDJvH-c0t-21">
          <mxGeometry relative="1" as="geometry" />
        </mxCell>
        <mxCell id="qsxSFnYyLfXHDJvH-c0t-26" value="Api&amp;nbsp;" style="edgeLabel;html=1;align=center;verticalAlign=middle;resizable=0;points=[];" vertex="1" connectable="0" parent="qsxSFnYyLfXHDJvH-c0t-25">
          <mxGeometry x="0.2375" y="-1" relative="1" as="geometry">
            <mxPoint x="-49" y="-1" as="offset" />
          </mxGeometry>
        </mxCell>
        <mxCell id="qsxSFnYyLfXHDJvH-c0t-12" value="&lt;span&gt;input ข้อมูล New Transition&lt;/span&gt;" style="html=1;strokeWidth=2;shape=manualInput;whiteSpace=wrap;rounded=1;size=20;arcSize=11;" vertex="1" parent="WIyWlLk6GJQsqaUBKTNV-1">
          <mxGeometry x="10" y="390" width="160" height="70" as="geometry" />
        </mxCell>
        <mxCell id="qsxSFnYyLfXHDJvH-c0t-14" value="Blockchain" style="strokeWidth=2;html=1;shape=mxgraph.flowchart.stored_data;whiteSpace=wrap;" vertex="1" parent="WIyWlLk6GJQsqaUBKTNV-1">
          <mxGeometry x="350" y="230" width="100" height="60" as="geometry" />
        </mxCell>
        <mxCell id="qsxSFnYyLfXHDJvH-c0t-30" style="edgeStyle=orthogonalEdgeStyle;rounded=0;orthogonalLoop=1;jettySize=auto;html=1;endArrow=blockThin;endFill=1;strokeColor=#330000;strokeWidth=1;" edge="1" parent="WIyWlLk6GJQsqaUBKTNV-1" source="qsxSFnYyLfXHDJvH-c0t-21" target="qsxSFnYyLfXHDJvH-c0t-27">
          <mxGeometry relative="1" as="geometry" />
        </mxCell>
        <mxCell id="qsxSFnYyLfXHDJvH-c0t-21" value="ระบบรับข้อมูล New Transition" style="rounded=1;whiteSpace=wrap;html=1;absoluteArcSize=1;arcSize=14;strokeWidth=2;" vertex="1" parent="WIyWlLk6GJQsqaUBKTNV-1">
          <mxGeometry x="330" y="390" width="170" height="70" as="geometry" />
        </mxCell>
        <mxCell id="qsxSFnYyLfXHDJvH-c0t-23" value="" style="endArrow=none;html=1;strokeColor=#330000;strokeWidth=3;" edge="1" parent="WIyWlLk6GJQsqaUBKTNV-1">
          <mxGeometry width="50" height="50" relative="1" as="geometry">
            <mxPoint x="270" y="800" as="sourcePoint" />
            <mxPoint x="270" y="10" as="targetPoint" />
          </mxGeometry>
        </mxCell>
        <mxCell id="qsxSFnYyLfXHDJvH-c0t-32" style="edgeStyle=orthogonalEdgeStyle;rounded=0;orthogonalLoop=1;jettySize=auto;html=1;endArrow=blockThin;endFill=1;strokeColor=#330000;strokeWidth=1;" edge="1" parent="WIyWlLk6GJQsqaUBKTNV-1" source="qsxSFnYyLfXHDJvH-c0t-27" target="qsxSFnYyLfXHDJvH-c0t-31">
          <mxGeometry relative="1" as="geometry" />
        </mxCell>
        <mxCell id="qsxSFnYyLfXHDJvH-c0t-27" value="Encryption ข้อมูล&amp;nbsp;" style="rounded=1;whiteSpace=wrap;html=1;absoluteArcSize=1;arcSize=14;strokeWidth=2;" vertex="1" parent="WIyWlLk6GJQsqaUBKTNV-1">
          <mxGeometry x="352" y="510" width="126" height="70" as="geometry" />
        </mxCell>
        <mxCell id="qsxSFnYyLfXHDJvH-c0t-29" style="edgeStyle=orthogonalEdgeStyle;rounded=0;orthogonalLoop=1;jettySize=auto;html=1;strokeColor=#330000;strokeWidth=1;endArrow=none;endFill=0;dashed=1;" edge="1" parent="WIyWlLk6GJQsqaUBKTNV-1" source="qsxSFnYyLfXHDJvH-c0t-28" target="qsxSFnYyLfXHDJvH-c0t-27">
          <mxGeometry relative="1" as="geometry" />
        </mxCell>
        <mxCell id="qsxSFnYyLfXHDJvH-c0t-28" value="เข้ารหัสด้วย&amp;nbsp;&lt;span style=&quot;color: rgb(77 , 81 , 86) ; font-family: &amp;#34;arial&amp;#34; , sans-serif ; font-size: 14px ; text-align: left ; background-color: rgb(255 , 255 , 255)&quot;&gt;Advanced Encryption Standard (&lt;/span&gt;&lt;span style=&quot;font-weight: bold ; color: rgb(95 , 99 , 104) ; font-family: &amp;#34;arial&amp;#34; , sans-serif ; font-size: 14px ; text-align: left ; background-color: rgb(255 , 255 , 255)&quot;&gt;AES&lt;/span&gt;&lt;span style=&quot;color: rgb(77 , 81 , 86) ; font-family: &amp;#34;arial&amp;#34; , sans-serif ; font-size: 14px ; text-align: left ; background-color: rgb(255 , 255 , 255)&quot;&gt;)&lt;/span&gt;" style="strokeWidth=2;html=1;shape=mxgraph.flowchart.document2;whiteSpace=wrap;size=0.25;" vertex="1" parent="WIyWlLk6GJQsqaUBKTNV-1">
          <mxGeometry x="580" y="500" width="180" height="90" as="geometry" />
        </mxCell>
        <mxCell id="qsxSFnYyLfXHDJvH-c0t-31" value="สร้าง New Block จากข้อมูลที่เข้ารหัสแล้ว" style="rounded=1;whiteSpace=wrap;html=1;absoluteArcSize=1;arcSize=14;strokeWidth=2;" vertex="1" parent="WIyWlLk6GJQsqaUBKTNV-1">
          <mxGeometry x="338" y="630" width="154" height="60" as="geometry" />
        </mxCell>
        <mxCell id="qsxSFnYyLfXHDJvH-c0t-33" value="" style="strokeWidth=2;html=1;shape=mxgraph.flowchart.document2;whiteSpace=wrap;size=0.25;" vertex="1" parent="WIyWlLk6GJQsqaUBKTNV-1">
          <mxGeometry x="580" y="620" width="190" height="100" as="geometry" />
        </mxCell>
      </root>
    </mxGraphModel>
  </diagram>
</mxfile>
